{
	"asset":{
		"generator":"Khronos glTF Blender I/O v3.5.30",
		"version":"2.0"
	},
	"extensionsUsed":[
		"KHR_materials_specular",
		"KHR_materials_ior"
	],
	"scene":0,
	"scenes":[
		{
			"name":"Scene",
			"nodes":[
				0
			]
		}
	],
	"nodes":[
		{
			"mesh":0,
			"name":"texturedMesh"
		}
	],
	"materials":[
		{
			"doubleSided":true,
			"extensions":{
				"KHR_materials_specular":{
					"specularColorFactor":[
						0,
						0,
						0
					]
				},
				"KHR_materials_ior":{
					"ior":1.4500000476837158
				}
			},
			"name":"TextureAtlas_1001",
			"pbrMetallicRoughness":{
				"baseColorTexture":{
					"index":0
				},
				"metallicFactor":0
			}
		}
	],
	"meshes":[
		{
			"name":"texturedMesh",
			"primitives":[
				{
					"attributes":{
						"POSITION":0,
						"TEXCOORD_0":1,
						"NORMAL":2
					},
					"indices":3,
					"material":0
				}
			]
		}
	],
	"textures":[
		{
			"sampler":0,
			"source":0
		}
	],
	"images":[
		{
			"bufferView":4,
			"mimeType":"image/png",
			"name":"texture_1001"
		}
	],
	"accessors":[
		{
			"bufferView":0,
			"componentType":5126,
			"count":10973,
			"max":[
				0.5860205292701721,
				0.8085460066795349,
				0.5397748947143555
			],
			"min":[
				-0.28528857231140137,
				-0.08347052335739136,
				-0.2886257767677307
			],
			"type":"VEC3"
		},
		{
			"bufferView":1,
			"componentType":5126,
			"count":10973,
			"type":"VEC2"
		},
		{
			"bufferView":2,
			"componentType":5126,
			"count":10973,
			"type":"VEC3"
		},
		{
			"bufferView":3,
			"componentType":5123,
			"count":47736,
			"type":"SCALAR"
		}
	],
	"bufferViews":[
		{
			"buffer":0,
			"byteLength":131676,
			"byteOffset":0,
			"target":34962
		},
		{
			"buffer":0,
			"byteLength":87784,
			"byteOffset":131676,
			"target":34962
		},
		{
			"buffer":0,
			"byteLength":131676,
			"byteOffset":219460,
			"target":34962
		},
		{
			"buffer":0,
			"byteLength":95472,
			"byteOffset":351136,
			"target":34963
		},
		{
			"buffer":0,
			"byteLength":1835261,
			"byteOffset":446608
		}
	],
	"samplers":[
		{
			"magFilter":9729,
			"minFilter":9987
		}
	],
	"buffers":[
		{
			"byteLength":2281872,
			"uri":"data:application/octet-stream;base64,"
		}
	]
}
